<?xml version="1.0" encoding="utf-8"?><svg id="Outline_CMYK_identisch_wie_Ebene_RZ_Black_" data-name="Outline_CMYK (identisch wie Ebene RZ Black)" xmlns="http://www.w3.org/2000/svg" viewBox="0 0 277.795 86.306"><defs><style>.cls-1{fill:#1b365d;}.cls-2{fill:#a2b2c8;}</style></defs><title>190920_PKRück_Logo</title><path class="cls-1" d="M320.349,286.5c0-7.44-4.83-12.959-12.03-12.959-7.23,0-12.06,5.519-12.06,12.959s4.83,12.959,12.06,12.959C315.519,299.457,320.349,293.938,320.349,286.5ZM285.67,327.806V264h11.519v5.37c2.221-3.12,7.23-6.33,13.53-6.33,12.089,0,21.329,10.709,21.329,23.459s-9.24,23.459-21.329,23.459c-6.3,0-11.309-3.21-13.53-6.33v24.179Z" transform="translate(-285.67 -241.5)"/><path class="cls-1" d="M348.582,287.968V309h-11.52V241.5h11.52v39.238L364.031,264H378.1l-18.57,20.189L382.36,309H367.991Z" transform="translate(-285.67 -241.5)"/><path class="cls-2" d="M388.167,264h11.519v7.47a12.207,12.207,0,0,1,11.4-7.98,14.647,14.647,0,0,1,4.05.48V275.7a15.439,15.439,0,0,0-5.37-.931c-5.79,0-10.08,4.59-10.08,12.57V309H388.167Z" transform="translate(-285.67 -241.5)"/><path class="cls-2" d="M445.042,248.071a6.51,6.51,0,1,1,6.539,6.48A6.485,6.485,0,0,1,445.042,248.071Zm-21,0a6.51,6.51,0,1,1,6.57,6.48A6.493,6.493,0,0,1,424.042,248.071Zm-3.48,42.3V264h11.52v24.449c0,6.96,2.58,11.009,8.1,11.009,5.819,0,9.839-4.38,9.839-13.439V264h11.52v45h-11.52v-5.46c-2.49,3.93-6.84,6.42-12.6,6.42C426.772,309.957,420.562,302.127,420.562,290.368Z" transform="translate(-285.67 -241.5)"/><path class="cls-2" d="M466.567,286.5a23.123,23.123,0,0,1,23.639-23.459c12.24,0,20.579,7.68,22.979,17.909h-12a11.25,11.25,0,0,0-10.98-7.469c-6.99,0-12,5.189-12,13.019s5.009,13.02,12,13.02a11.251,11.251,0,0,0,10.98-7.47h12c-2.4,10.229-10.739,17.909-22.979,17.909A23.122,23.122,0,0,1,466.567,286.5Z" transform="translate(-285.67 -241.5)"/><path class="cls-2" d="M529.686,287.968V309H518.167V241.5h11.519v39.238L545.136,264h14.069l-18.569,20.189L563.465,309H549.1Z" transform="translate(-285.67 -241.5)"/></svg>